<svg width="32" height="32" viewBox="0 0 32 32" fill="none" xmlns="http://www.w3.org/2000/svg">
  <!-- Background circle -->
  <circle cx="16" cy="16" r="16" fill="#3B82F6"/>
  
  <!-- Shopping bag icon -->
  <path d="M8 12L8 26C8 27.1046 8.89543 28 10 28L22 28C23.1046 28 24 27.1046 24 26L24 12" stroke="white" stroke-width="2" fill="none"/>
  
  <!-- Bag handles -->
  <path d="M8 12C8 9.79086 9.79086 8 12 8L20 8C22.2091 8 24 9.79086 24 12" stroke="white" stroke-width="2" fill="none"/>
  
  <!-- Shopping cart wheels -->
  <circle cx="12" cy="24" r="2" fill="white"/>
  <circle cx="20" cy="24" r="2" fill="white"/>
  
  <!-- Product blocks inside bag -->
  <rect x="11" y="14" width="3" height="2" fill="white" opacity="0.8"/>
  <rect x="15" y="14" width="3" height="2" fill="white" opacity="0.8"/>
  <rect x="11" y="17" width="3" height="2" fill="white" opacity="0.6"/>
  <rect x="15" y="17" width="3" height="2" fill="white" opacity="0.6"/>
</svg>
